<?xml version="1.0" encoding="UTF-8"?>
<svg id="Layer_2" data-name="Layer 2" xmlns="http://www.w3.org/2000/svg" xmlns:xlink="http://www.w3.org/1999/xlink" viewBox="0 0 1024 1024">
  <defs>
    <style>
      .cls-1 {
        fill: url(#linear-gradient);
      }

      .cls-1, .cls-2, .cls-3, .cls-4, .cls-5 {
        stroke-width: 0px;
      }

      .cls-2 {
        fill: url(#linear-gradient-4);
      }

      .cls-3 {
        fill: url(#linear-gradient-2);
      }

      .cls-4 {
        fill: url(#linear-gradient-3);
      }

      .cls-5 {
        fill: #38cccc;
      }
    </style>
    <linearGradient id="linear-gradient" x1="10.27" y1="558.57" x2="10.27" y2="302.57" gradientTransform="translate(261.93 140.23)" gradientUnits="userSpaceOnUse">
      <stop offset="0" stop-color="#0075db"/>
      <stop offset="1" stop-color="#004E89" stop-opacity="0"/>
    </linearGradient>
    <linearGradient id="linear-gradient-2" x1="432.32" y1="302.47" x2="432.32" y2="46.47" gradientTransform="translate(319.58 278.82)" gradientUnits="userSpaceOnUse">
      <stop offset="0" stop-color="#0075db"/>
      <stop offset="1" stop-color="#004E89" stop-opacity="0"/>
    </linearGradient>
    <linearGradient id="linear-gradient-3" x1="707.18" y1="-100.59" x2="707.18" y2="-356.59" gradientTransform="translate(-136.18 980.59)" gradientUnits="userSpaceOnUse">
      <stop offset="0" stop-color="#0075db"/>
      <stop offset="1" stop-color="#004E89" stop-opacity="0"/>
    </linearGradient>
    <linearGradient id="linear-gradient-4" x1="963.39" y1="-313.94" x2="963.39" y2="-569.94" gradientTransform="translate(-510.22 714.1)" gradientUnits="userSpaceOnUse">
      <stop offset="0" stop-color="#0075db"/>
      <stop offset="1" stop-color="#004E89" stop-opacity="0"/>
    </linearGradient>
  </defs>
  <rect class="cls-1" x="208.2" y="442.79" width="128" height="256" transform="translate(-323.89 359.66) rotate(-45)"/>
  <rect class="cls-3" x="687.9" y="325.29" width="128" height="256" transform="translate(1604.09 242.14) rotate(135)"/>
  <rect class="cls-4" x="507" y="624" width="128" height="256" transform="translate(443.01 1687.5) rotate(-135)"/>
  <rect class="cls-2" x="389.16" y="144.16" width="128" height="256" transform="translate(325.17 -240.72) rotate(45)"/>
  <circle class="cls-5" cx="64" cy="960" r="64"/>
  <circle class="cls-5" cx="64" cy="64" r="64"/>
  <circle class="cls-5" cx="960" cy="64" r="64"/>
  <circle class="cls-5" cx="362.67" cy="64" r="64"/>
  <circle class="cls-5" cx="362.67" cy="362.67" r="64"/>
  <circle class="cls-5" cx="362.67" cy="959" r="64"/>
  <circle class="cls-5" cx="362.67" cy="661.33" r="64"/>
  <circle class="cls-5" cx="661.33" cy="362.67" r="64"/>
  <circle class="cls-5" cx="661.33" cy="959" r="64"/>
  <circle class="cls-5" cx="661.51" cy="661.45" r="64"/>
  <circle class="cls-5" cx="960" cy="362.67" r="64"/>
  <circle class="cls-5" cx="960" cy="959" r="64"/>
  <circle class="cls-5" cx="960" cy="661.33" r="64"/>
  <circle class="cls-5" cx="661.33" cy="64" r="64"/>
  <circle class="cls-5" cx="64" cy="661.33" r="64"/>
  <circle class="cls-5" cx="64" cy="362.67" r="64"/>
</svg>