<svg width="1024" height="1024" viewBox="0 0 1024 1024" fill="none" xmlns="http://www.w3.org/2000/svg">
<g clip-path="url(#clip0_189_24)">
<path d="M428.51 701.174L444.544 661.348H580.562L596.596 701.174H428.51ZM397.546 780.826L413.028 741H611.525L628.665 780.826H397.546ZM366.583 860.478L382.065 820.652H643.041L659.628 860.478H366.583ZM43.1274 970H0L362.16 54H405.287L766.894 970H724.32L383.724 107.655L43.1274 970ZM388.7 202.242L411.369 253.13L128.276 970H85.7019L388.7 202.242ZM432.933 307.338L453.944 362.099L214.531 970H171.404L432.933 307.338ZM474.955 416.86L495.965 472.727L299.68 970H257.106L474.955 416.86ZM1024 970H980.873L619.266 54H661.84L1024 970ZM576.138 54L938.298 970H895.724L533.564 54H576.138ZM490.436 54L852.596 970H809.469L447.862 54H490.436Z" fill="#606062"/>
<path d="M362.331 54L0 970H128.337L426.478 215.384L724.663 970H853L490.669 54H362.331Z" fill="#1C1C1E"/>
</g>
<defs>
<clipPath id="clip0_189_24">
<rect width="1024" height="1024" fill="white"/>
</clipPath>
</defs>
</svg>
