<?xml version="1.0" encoding="UTF-8"?>
<svg id="Layer_1" data-name="Layer 1" xmlns="http://www.w3.org/2000/svg" viewBox="0 0 2560 2560">
  <defs>
    <style>
      .cls-1 {
        fill: #38cccc;
        stroke-width: 0px;
      }
    </style>
  </defs>
  <path class="cls-1" d="M1280,0C573.08,0,0,573.08,0,1280s573.08,1280,1280,1280,1280-573.08,1280-1280S1986.92,0,1280,0ZM1280.63,2399.84c-618.13,0-1119.22-501.09-1119.22-1119.22S662.5,161.41,1280.63,161.41s1119.22,501.09,1119.22,1119.22-501.09,1119.22-1119.22,1119.22Z"/>
  <path class="cls-1" d="M1361.33,320.28v1916.95c491.55-43.07,877.11-455.74,877.11-958.47s-385.56-915.4-877.11-958.47ZM1521.49,2045.41V514.59c325.58,102.08,561.8,406.15,561.8,765.41s-236.21,663.33-561.8,765.41Z"/>
  <path class="cls-1" d="M314.06,1278.75c0,285.87,124.68,542.61,322.61,718.85,27.39-48.61,54.78-97.22,82.17-145.83-111.96-110.13-191.7-252.88-223.86-412.86h546.04v773.06c51.84,13.03,105.36,21.85,160.16,26.08V319.45c-496.32,38.3-887.12,453.16-887.12,959.3ZM1041.02,514.59v764.16H479.22c.55-358.71,236.59-662.19,561.79-764.16Z"/>
</svg>